<mxfile host="Electron" modified="2024-03-25T15:12:06.332Z" agent="Mozilla/5.0 (Windows NT 10.0; Win64; x64) AppleWebKit/537.36 (KHTML, like Gecko) draw.io/24.0.4 Chrome/120.0.6099.109 Electron/28.1.0 Safari/537.36" etag="e2VT0zg7KL-SQLn8bWxT" version="24.0.4" type="device">
  <diagram name="Trang-1" id="1tBFj_Nw2HdM_KiPnuBd">
    <mxGraphModel dx="2634" dy="844" grid="1" gridSize="10" guides="1" tooltips="1" connect="1" arrows="1" fold="1" page="1" pageScale="1" pageWidth="1200" pageHeight="1600" math="0" shadow="0">
      <root>
        <mxCell id="0" />
        <mxCell id="1" parent="0" />
        <mxCell id="tCey0tJbfPJkqSv6fTyA-13" value="" style="rounded=0;whiteSpace=wrap;html=1;movable=1;resizable=1;rotatable=1;deletable=1;editable=1;locked=0;connectable=1;" parent="1" vertex="1">
          <mxGeometry x="-320" y="890" width="1200" height="910" as="geometry" />
        </mxCell>
        <mxCell id="tCey0tJbfPJkqSv6fTyA-14" value="&lt;b&gt;商品検索&lt;/b&gt;" style="html=1;shadow=0;dashed=0;shape=mxgraph.bootstrap.rrect;rSize=5;html=1;strokeColor=#CC0000;fillColor=#ffffff;whiteSpace=wrap;verticalAlign=top;align=left;fontSize=18;spacing=15;spacingTop=-5;movable=1;resizable=1;rotatable=1;deletable=1;editable=1;locked=0;connectable=1;" parent="1" vertex="1">
          <mxGeometry x="36" y="950" width="750" height="510" as="geometry" />
        </mxCell>
        <mxCell id="tCey0tJbfPJkqSv6fTyA-16" value="" style="html=1;shadow=0;dashed=0;shape=mxgraph.bootstrap.x;strokeColor=#868686;strokeWidth=2;movable=0;resizable=0;rotatable=0;deletable=0;editable=0;locked=1;connectable=0;" parent="tCey0tJbfPJkqSv6fTyA-14" vertex="1">
          <mxGeometry x="1" width="8" height="8" relative="1" as="geometry">
            <mxPoint x="-24" y="20" as="offset" />
          </mxGeometry>
        </mxCell>
        <mxCell id="tCey0tJbfPJkqSv6fTyA-17" value="" style="shape=line;strokeColor=#dddddd;resizeWidth=1;movable=1;resizable=1;rotatable=1;deletable=1;editable=1;locked=0;connectable=1;" parent="tCey0tJbfPJkqSv6fTyA-14" vertex="1">
          <mxGeometry width="750" height="10" relative="1" as="geometry">
            <mxPoint y="420" as="offset" />
          </mxGeometry>
        </mxCell>
        <mxCell id="tCey0tJbfPJkqSv6fTyA-18" value="検索" style="html=1;shadow=0;dashed=0;shape=mxgraph.bootstrap.rrect;rSize=5;fillColor=#0085FC;strokeColor=none;fontColor=#FFFFFF;fontSize=14;movable=1;resizable=1;rotatable=1;deletable=1;editable=1;locked=0;connectable=1;" parent="tCey0tJbfPJkqSv6fTyA-14" vertex="1">
          <mxGeometry x="1" y="1" width="89" height="40" relative="1" as="geometry">
            <mxPoint x="-110" y="-60" as="offset" />
          </mxGeometry>
        </mxCell>
        <mxCell id="tCey0tJbfPJkqSv6fTyA-19" value="クリア" style="html=1;shadow=0;dashed=0;shape=mxgraph.bootstrap.rrect;rSize=5;fillColor=#6C757D;strokeColor=none;fontColor=#FFFFFF;fontSize=14;movable=1;resizable=1;rotatable=1;deletable=1;editable=1;locked=0;connectable=1;" parent="tCey0tJbfPJkqSv6fTyA-14" vertex="1">
          <mxGeometry x="1" y="1" width="91" height="40" relative="1" as="geometry">
            <mxPoint x="-227" y="-60" as="offset" />
          </mxGeometry>
        </mxCell>
        <mxCell id="4LprjP2YMJZiyVC7Syjy-7" value="" style="rounded=0;whiteSpace=wrap;html=1;strokeColor=#CC0000;strokeWidth=2;fillColor=none;" parent="tCey0tJbfPJkqSv6fTyA-14" vertex="1">
          <mxGeometry width="750" height="60" as="geometry" />
        </mxCell>
        <mxCell id="4LprjP2YMJZiyVC7Syjy-167" value="&lt;font color=&quot;#cc0000&quot;&gt;&lt;b&gt;SE3.1&lt;/b&gt;&lt;/font&gt;" style="shape=callout;whiteSpace=wrap;html=1;perimeter=calloutPerimeter;base=10;position2=0.67;size=10;position=0.6;strokeColor=#CC0000;strokeWidth=2;" parent="tCey0tJbfPJkqSv6fTyA-14" vertex="1">
          <mxGeometry x="526" y="429.9999999999998" width="60" height="30" as="geometry" />
        </mxCell>
        <mxCell id="4LprjP2YMJZiyVC7Syjy-168" value="&lt;font color=&quot;#cc0000&quot;&gt;&lt;b&gt;SE3.2&lt;/b&gt;&lt;/font&gt;" style="shape=callout;whiteSpace=wrap;html=1;perimeter=calloutPerimeter;base=8;position2=0.4;size=10;position=0.23;strokeColor=#CC0000;strokeWidth=2;" parent="tCey0tJbfPJkqSv6fTyA-14" vertex="1">
          <mxGeometry x="652" y="429.9999999999998" width="60" height="30" as="geometry" />
        </mxCell>
        <mxCell id="4LprjP2YMJZiyVC7Syjy-169" value="&lt;font color=&quot;#cc0000&quot;&gt;&lt;b&gt;SE1.1&lt;/b&gt;&lt;/font&gt;" style="shape=callout;whiteSpace=wrap;html=1;perimeter=calloutPerimeter;base=14;position2=0;size=10;position=0.06;strokeColor=#CC0000;strokeWidth=2;" parent="tCey0tJbfPJkqSv6fTyA-14" vertex="1">
          <mxGeometry x="100" width="50" height="30" as="geometry" />
        </mxCell>
        <mxCell id="LfVNy8qlSJdIRLK8mX6e-85" value="&lt;font color=&quot;#cc0000&quot;&gt;&lt;b&gt;SE1.2&lt;/b&gt;&lt;/font&gt;" style="shape=callout;whiteSpace=wrap;html=1;perimeter=calloutPerimeter;base=10;position2=0.84;size=10;position=0.6;strokeColor=#CC0000;strokeWidth=2;" parent="tCey0tJbfPJkqSv6fTyA-14" vertex="1">
          <mxGeometry x="682" width="50" height="25" as="geometry" />
        </mxCell>
        <mxCell id="4LprjP2YMJZiyVC7Syjy-56" value="" style="rounded=0;whiteSpace=wrap;html=1;strokeColor=#CC0000;strokeWidth=2;fillColor=none;" parent="tCey0tJbfPJkqSv6fTyA-14" vertex="1">
          <mxGeometry y="420" width="750" height="80" as="geometry" />
        </mxCell>
        <mxCell id="4LprjP2YMJZiyVC7Syjy-58" value="&lt;font color=&quot;#ffffff&quot;&gt;SE1&lt;/font&gt;" style="rounded=0;whiteSpace=wrap;html=1;strokeColor=#CC0000;strokeWidth=2;fillColor=#CC0000;" parent="1" vertex="1">
          <mxGeometry x="789" y="955" width="37.16" height="20" as="geometry" />
        </mxCell>
        <mxCell id="4LprjP2YMJZiyVC7Syjy-62" value="&lt;font color=&quot;#ffffff&quot;&gt;SE3&lt;/font&gt;" style="rounded=0;whiteSpace=wrap;html=1;strokeColor=#CC0000;strokeWidth=2;fillColor=#CC0000;" parent="1" vertex="1">
          <mxGeometry x="788" y="1391" width="37.16" height="20" as="geometry" />
        </mxCell>
        <mxCell id="LfVNy8qlSJdIRLK8mX6e-1" value="" style="rounded=0;whiteSpace=wrap;html=1;strokeColor=#CC0000;strokeWidth=2;fillColor=none;" parent="1" vertex="1">
          <mxGeometry x="37" y="1020" width="750" height="350" as="geometry" />
        </mxCell>
        <mxCell id="LfVNy8qlSJdIRLK8mX6e-43" value="" style="shape=line;strokeColor=#dddddd;resizeWidth=1;movable=1;resizable=1;rotatable=1;deletable=1;editable=1;locked=0;connectable=1;" parent="1" vertex="1">
          <mxGeometry x="37" y="1010" width="750" height="10" as="geometry" />
        </mxCell>
        <mxCell id="LfVNy8qlSJdIRLK8mX6e-44" value="メーカー名" style="strokeColor=none;fillColor=none;fontColor=#000000;whiteSpace=wrap;align=right;verticalAlign=middle;fontStyle=0;fontSize=14;spacing=3;movable=1;resizable=1;rotatable=1;deletable=1;editable=1;locked=0;connectable=1;" parent="1" vertex="1">
          <mxGeometry x="48" y="1038.55" width="90" height="32" as="geometry" />
        </mxCell>
        <mxCell id="LfVNy8qlSJdIRLK8mX6e-45" value="選択してください" style="html=1;shadow=0;dashed=0;shape=mxgraph.bootstrap.rrect;rSize=5;fillColor=none;strokeColor=#999999;align=left;spacing=15;fontSize=14;fontColor=#6C767D;movable=1;resizable=1;rotatable=1;deletable=1;editable=1;locked=0;connectable=1;" parent="1" vertex="1">
          <mxGeometry x="145.15999999999997" y="1038.55" width="247" height="32" as="geometry" />
        </mxCell>
        <mxCell id="LfVNy8qlSJdIRLK8mX6e-46" value="" style="html=1;shadow=0;dashed=0;shape=mxgraph.bootstrap.x;strokeColor=#868686;strokeWidth=2;movable=1;resizable=1;rotatable=1;deletable=1;editable=1;locked=0;connectable=1;" parent="1" vertex="1">
          <mxGeometry x="373.15702702702714" y="1050.55" width="6.65945945945946" height="8" as="geometry" />
        </mxCell>
        <mxCell id="LfVNy8qlSJdIRLK8mX6e-47" value="色" style="strokeColor=none;fillColor=none;fontColor=#000000;whiteSpace=wrap;align=right;verticalAlign=middle;fontStyle=0;fontSize=14;spacing=3;movable=1;resizable=1;rotatable=1;deletable=1;editable=1;locked=0;connectable=1;" parent="1" vertex="1">
          <mxGeometry x="422" y="1214" width="90" height="32" as="geometry" />
        </mxCell>
        <mxCell id="LfVNy8qlSJdIRLK8mX6e-48" value="入力してくだいさい" style="html=1;shadow=0;dashed=0;shape=mxgraph.bootstrap.rrect;rSize=5;strokeColor=#999999;fillColor=#ffffff;fontColor=#777777;whiteSpace=wrap;align=left;verticalAlign=middle;fontStyle=0;fontSize=14;spacing=15;movable=1;resizable=1;rotatable=1;deletable=1;editable=1;locked=0;connectable=1;" parent="1" vertex="1">
          <mxGeometry x="521.8400000000001" y="1214" width="247" height="32" as="geometry" />
        </mxCell>
        <mxCell id="LfVNy8qlSJdIRLK8mX6e-49" value="形状" style="strokeColor=none;fillColor=none;fontColor=#000000;whiteSpace=wrap;align=right;verticalAlign=middle;fontStyle=0;fontSize=14;spacing=3;movable=1;resizable=1;rotatable=1;deletable=1;editable=1;locked=0;connectable=1;" parent="1" vertex="1">
          <mxGeometry x="106" y="1156" width="32" height="32" as="geometry" />
        </mxCell>
        <mxCell id="LfVNy8qlSJdIRLK8mX6e-50" value="入力してくだいさい" style="html=1;shadow=0;dashed=0;shape=mxgraph.bootstrap.rrect;rSize=5;strokeColor=#999999;fillColor=#ffffff;fontColor=#777777;whiteSpace=wrap;align=left;verticalAlign=middle;fontStyle=0;fontSize=14;spacing=15;movable=1;resizable=1;rotatable=1;deletable=1;editable=1;locked=0;connectable=1;" parent="1" vertex="1">
          <mxGeometry x="145.15999999999997" y="1156" width="247" height="32" as="geometry" />
        </mxCell>
        <mxCell id="LfVNy8qlSJdIRLK8mX6e-51" value="商品説明" style="strokeColor=none;fillColor=none;fontColor=#000000;whiteSpace=wrap;align=right;verticalAlign=middle;fontStyle=0;fontSize=14;spacing=3;movable=1;resizable=1;rotatable=1;deletable=1;editable=1;locked=0;connectable=1;" parent="1" vertex="1">
          <mxGeometry x="452" y="1156" width="60" height="32" as="geometry" />
        </mxCell>
        <mxCell id="LfVNy8qlSJdIRLK8mX6e-52" value="入力してくだいさい" style="html=1;shadow=0;dashed=0;shape=mxgraph.bootstrap.rrect;rSize=5;strokeColor=#999999;fillColor=#ffffff;fontColor=#777777;whiteSpace=wrap;align=left;verticalAlign=middle;fontStyle=0;fontSize=14;spacing=15;movable=1;resizable=1;rotatable=1;deletable=1;editable=1;locked=0;connectable=1;" parent="1" vertex="1">
          <mxGeometry x="521.8400000000001" y="1156" width="247" height="32" as="geometry" />
        </mxCell>
        <mxCell id="LfVNy8qlSJdIRLK8mX6e-53" value="商品コード" style="strokeColor=none;fillColor=none;fontColor=#000000;whiteSpace=wrap;align=right;verticalAlign=middle;fontStyle=0;fontSize=14;spacing=3;movable=1;resizable=1;rotatable=1;deletable=1;editable=1;locked=0;connectable=1;" parent="1" vertex="1">
          <mxGeometry x="422" y="1038.55" width="90" height="32" as="geometry" />
        </mxCell>
        <mxCell id="LfVNy8qlSJdIRLK8mX6e-54" value="0" style="html=1;shadow=0;dashed=0;shape=mxgraph.bootstrap.rrect;rSize=5;fillColor=none;strokeColor=#999999;align=center;spacing=15;fontSize=14;fontColor=#6C767D;movable=1;resizable=1;rotatable=1;deletable=1;editable=1;locked=0;connectable=1;" parent="1" vertex="1">
          <mxGeometry x="521.8400000000001" y="1038.55" width="100" height="32" as="geometry" />
        </mxCell>
        <mxCell id="LfVNy8qlSJdIRLK8mX6e-55" value="9999" style="html=1;shadow=0;dashed=0;shape=mxgraph.bootstrap.rrect;rSize=5;fillColor=none;strokeColor=#999999;align=center;spacing=15;fontSize=14;fontColor=#6C767D;movable=1;resizable=1;rotatable=1;deletable=1;editable=1;locked=0;connectable=1;" parent="1" vertex="1">
          <mxGeometry x="668.8400000000001" y="1038.55" width="100" height="32" as="geometry" />
        </mxCell>
        <mxCell id="LfVNy8qlSJdIRLK8mX6e-56" value="サイズ（cm）" style="strokeColor=none;fillColor=none;fontColor=#000000;whiteSpace=wrap;align=left;verticalAlign=middle;fontStyle=0;fontSize=14;spacing=3;movable=1;resizable=1;rotatable=1;deletable=1;editable=1;locked=0;connectable=1;" parent="1" vertex="1">
          <mxGeometry x="52" y="1214" width="97" height="32" as="geometry" />
        </mxCell>
        <mxCell id="LfVNy8qlSJdIRLK8mX6e-57" value="高さ" style="html=1;shadow=0;dashed=0;shape=mxgraph.bootstrap.rrect;rSize=5;strokeColor=#999999;fillColor=#ffffff;fontColor=#777777;whiteSpace=wrap;align=left;verticalAlign=middle;fontStyle=0;fontSize=14;spacing=15;movable=1;resizable=1;rotatable=1;deletable=1;editable=1;locked=0;connectable=1;" parent="1" vertex="1">
          <mxGeometry x="145.15999999999997" y="1214" width="60" height="32" as="geometry" />
        </mxCell>
        <mxCell id="LfVNy8qlSJdIRLK8mX6e-58" value="幅" style="html=1;shadow=0;dashed=0;shape=mxgraph.bootstrap.rrect;rSize=5;strokeColor=#999999;fillColor=#ffffff;fontColor=#777777;whiteSpace=wrap;align=left;verticalAlign=middle;fontStyle=0;fontSize=14;spacing=15;movable=1;resizable=1;rotatable=1;deletable=1;editable=1;locked=0;connectable=1;" parent="1" vertex="1">
          <mxGeometry x="230.16" y="1214" width="60" height="32" as="geometry" />
        </mxCell>
        <mxCell id="LfVNy8qlSJdIRLK8mX6e-59" value="奥行" style="html=1;shadow=0;dashed=0;shape=mxgraph.bootstrap.rrect;rSize=5;strokeColor=#999999;fillColor=#ffffff;fontColor=#777777;whiteSpace=wrap;align=left;verticalAlign=middle;fontStyle=0;fontSize=14;spacing=15;movable=1;resizable=1;rotatable=1;deletable=1;editable=1;locked=0;connectable=1;" parent="1" vertex="1">
          <mxGeometry x="318.1600000000001" y="1214" width="60" height="32" as="geometry" />
        </mxCell>
        <mxCell id="LfVNy8qlSJdIRLK8mX6e-60" value="~" style="strokeColor=none;fillColor=none;fontColor=#000000;whiteSpace=wrap;align=center;verticalAlign=middle;fontStyle=0;fontSize=14;spacing=0;movable=1;resizable=1;rotatable=1;deletable=1;editable=1;locked=0;connectable=1;" parent="1" vertex="1">
          <mxGeometry x="637" y="1038.55" width="20" height="32" as="geometry" />
        </mxCell>
        <mxCell id="LfVNy8qlSJdIRLK8mX6e-61" value="×" style="strokeColor=none;fillColor=none;fontColor=#000000;whiteSpace=wrap;align=center;verticalAlign=middle;fontStyle=0;fontSize=14;spacing=0;movable=1;resizable=1;rotatable=1;deletable=1;editable=1;locked=0;connectable=1;" parent="1" vertex="1">
          <mxGeometry x="206.16" y="1214" width="26" height="32" as="geometry" />
        </mxCell>
        <mxCell id="LfVNy8qlSJdIRLK8mX6e-62" value="商品名" style="strokeColor=none;fillColor=none;fontColor=#000000;whiteSpace=wrap;align=right;verticalAlign=middle;fontStyle=0;fontSize=14;spacing=3;movable=1;resizable=1;rotatable=1;deletable=1;editable=1;locked=0;connectable=1;" parent="1" vertex="1">
          <mxGeometry x="78" y="1096.45" width="60" height="32" as="geometry" />
        </mxCell>
        <mxCell id="LfVNy8qlSJdIRLK8mX6e-63" value="入力してくだいさい" style="html=1;shadow=0;dashed=0;shape=mxgraph.bootstrap.rrect;rSize=5;strokeColor=#999999;fillColor=#ffffff;fontColor=#777777;whiteSpace=wrap;align=left;verticalAlign=middle;fontStyle=0;fontSize=14;spacing=15;movable=1;resizable=1;rotatable=1;deletable=1;editable=1;locked=0;connectable=1;" parent="1" vertex="1">
          <mxGeometry x="145.15999999999997" y="1096.45" width="247" height="32" as="geometry" />
        </mxCell>
        <mxCell id="LfVNy8qlSJdIRLK8mX6e-64" value="在庫数" style="strokeColor=none;fillColor=none;fontColor=#000000;whiteSpace=wrap;align=right;verticalAlign=middle;fontStyle=0;fontSize=14;spacing=3;movable=1;resizable=1;rotatable=1;deletable=1;editable=1;locked=0;connectable=1;" parent="1" vertex="1">
          <mxGeometry x="452" y="1096.45" width="60" height="32" as="geometry" />
        </mxCell>
        <mxCell id="LfVNy8qlSJdIRLK8mX6e-65" value="0" style="html=1;shadow=0;dashed=0;shape=mxgraph.bootstrap.rrect;rSize=5;fillColor=none;strokeColor=#999999;align=center;spacing=15;fontSize=14;fontColor=#6C767D;movable=1;resizable=1;rotatable=1;deletable=1;editable=1;locked=0;connectable=1;" parent="1" vertex="1">
          <mxGeometry x="521.8400000000001" y="1096.45" width="100" height="32" as="geometry" />
        </mxCell>
        <mxCell id="LfVNy8qlSJdIRLK8mX6e-66" value="~" style="strokeColor=none;fillColor=none;fontColor=#000000;whiteSpace=wrap;align=center;verticalAlign=middle;fontStyle=0;fontSize=14;spacing=0;movable=1;resizable=1;rotatable=1;deletable=1;editable=1;locked=0;connectable=1;" parent="1" vertex="1">
          <mxGeometry x="637" y="1096.45" width="20" height="32" as="geometry" />
        </mxCell>
        <mxCell id="LfVNy8qlSJdIRLK8mX6e-67" value="9999" style="html=1;shadow=0;dashed=0;shape=mxgraph.bootstrap.rrect;rSize=5;fillColor=none;strokeColor=#999999;align=center;spacing=15;fontSize=14;fontColor=#6C767D;movable=1;resizable=1;rotatable=1;deletable=1;editable=1;locked=0;connectable=1;" parent="1" vertex="1">
          <mxGeometry x="668.8400000000001" y="1096.45" width="100" height="32" as="geometry" />
        </mxCell>
        <mxCell id="LfVNy8qlSJdIRLK8mX6e-68" value="入庫日" style="strokeColor=none;fillColor=none;fontColor=#000000;whiteSpace=wrap;align=right;verticalAlign=middle;fontStyle=0;fontSize=14;spacing=3;movable=1;resizable=1;rotatable=1;deletable=1;editable=1;locked=0;connectable=1;" parent="1" vertex="1">
          <mxGeometry x="78" y="1272.45" width="60" height="32" as="geometry" />
        </mxCell>
        <mxCell id="LfVNy8qlSJdIRLK8mX6e-69" value="&lt;font style=&quot;font-size: 10px;&quot;&gt;yyyy/MM/dd&lt;/font&gt;" style="html=1;shadow=0;dashed=0;shape=mxgraph.bootstrap.rrect;rSize=5;fillColor=none;strokeColor=#999999;align=left;spacing=13;fontSize=14;fontColor=#6C767D;movable=1;resizable=1;rotatable=1;deletable=1;editable=1;locked=0;connectable=1;" parent="1" vertex="1">
          <mxGeometry x="145.16" y="1272.45" width="114" height="32" as="geometry" />
        </mxCell>
        <mxCell id="LfVNy8qlSJdIRLK8mX6e-70" value="&lt;font style=&quot;font-size: 10px;&quot;&gt;yyyy/MM/dd&lt;/font&gt;" style="html=1;shadow=0;dashed=0;shape=mxgraph.bootstrap.rrect;rSize=5;fillColor=none;strokeColor=#999999;align=left;spacing=13;fontSize=14;fontColor=#6C767D;movable=1;resizable=1;rotatable=1;deletable=1;editable=1;locked=0;connectable=1;" parent="1" vertex="1">
          <mxGeometry x="282" y="1272.45" width="114" height="32" as="geometry" />
        </mxCell>
        <mxCell id="LfVNy8qlSJdIRLK8mX6e-71" value="販売価格（円）" style="strokeColor=none;fillColor=none;fontColor=#000000;whiteSpace=wrap;align=right;verticalAlign=middle;fontStyle=0;fontSize=14;spacing=3;movable=1;resizable=1;rotatable=1;deletable=1;editable=1;locked=0;connectable=1;" parent="1" vertex="1">
          <mxGeometry x="423" y="1272.45" width="102" height="32" as="geometry" />
        </mxCell>
        <mxCell id="LfVNy8qlSJdIRLK8mX6e-72" value="0" style="html=1;shadow=0;dashed=0;shape=mxgraph.bootstrap.rrect;rSize=5;fillColor=none;strokeColor=#999999;align=center;spacing=15;fontSize=14;fontColor=#6C767D;movable=1;resizable=1;rotatable=1;deletable=1;editable=1;locked=0;connectable=1;" parent="1" vertex="1">
          <mxGeometry x="521.8399999999999" y="1272.45" width="100" height="32" as="geometry" />
        </mxCell>
        <mxCell id="LfVNy8qlSJdIRLK8mX6e-73" value="9999" style="html=1;shadow=0;dashed=0;shape=mxgraph.bootstrap.rrect;rSize=5;fillColor=none;strokeColor=#999999;align=center;spacing=15;fontSize=14;fontColor=#6C767D;movable=1;resizable=1;rotatable=1;deletable=1;editable=1;locked=0;connectable=1;" parent="1" vertex="1">
          <mxGeometry x="668.8400000000001" y="1272.45" width="100" height="32" as="geometry" />
        </mxCell>
        <mxCell id="LfVNy8qlSJdIRLK8mX6e-74" value="販売する" style="html=1;shadow=0;dashed=0;shape=mxgraph.bootstrap.radioButton2;labelPosition=right;verticalLabelPosition=middle;align=left;verticalAlign=middle;gradientColor=#DEDEDE;fillColor=#EDEDED;checked=1;spacing=5;checkedFill=#0085FC;checkedStroke=#ffffff;sketch=0;direction=south;fontColor=#000000;movable=1;resizable=1;rotatable=1;deletable=1;editable=1;locked=0;connectable=1;" parent="1" vertex="1">
          <mxGeometry x="145.15999999999997" y="1335.06" width="7" height="7" as="geometry" />
        </mxCell>
        <mxCell id="LfVNy8qlSJdIRLK8mX6e-75" value="販売しない" style="html=1;shadow=0;dashed=0;shape=mxgraph.bootstrap.radioButton2;labelPosition=right;verticalLabelPosition=middle;align=left;verticalAlign=middle;gradientColor=#DEDEDE;fillColor=#EDEDED;checked=0;spacing=5;checkedFill=#0085FC;checkedStroke=#ffffff;sketch=0;fontColor=#000000;movable=1;resizable=1;rotatable=1;deletable=1;editable=1;locked=0;connectable=1;" parent="1" vertex="1">
          <mxGeometry x="219.15999999999997" y="1333.56" width="10" height="10" as="geometry" />
        </mxCell>
        <mxCell id="LfVNy8qlSJdIRLK8mX6e-76" value="表示制御区分" style="strokeColor=none;fillColor=none;fontColor=#000000;whiteSpace=wrap;align=right;verticalAlign=middle;fontStyle=0;fontSize=14;spacing=3;movable=1;resizable=1;rotatable=1;deletable=1;editable=1;locked=0;connectable=1;" parent="1" vertex="1">
          <mxGeometry x="48" y="1322.56" width="90" height="32" as="geometry" />
        </mxCell>
        <mxCell id="LfVNy8qlSJdIRLK8mX6e-77" value="" style="html=1;dashed=0;aspect=fixed;verticalLabelPosition=bottom;verticalAlign=top;align=center;shape=mxgraph.gmdl.calendar;strokeColor=none;fillColor=#737373;shadow=0;sketch=0;movable=1;resizable=1;rotatable=1;deletable=1;editable=1;locked=0;connectable=1;" parent="1" vertex="1">
          <mxGeometry x="232.15999999999997" y="1278.45" width="20" height="20" as="geometry" />
        </mxCell>
        <mxCell id="LfVNy8qlSJdIRLK8mX6e-78" value="" style="html=1;dashed=0;aspect=fixed;verticalLabelPosition=bottom;verticalAlign=top;align=center;shape=mxgraph.gmdl.calendar;strokeColor=none;fillColor=#737373;shadow=0;sketch=0;movable=1;resizable=1;rotatable=1;deletable=1;editable=1;locked=0;connectable=1;" parent="1" vertex="1">
          <mxGeometry x="368.9999999999998" y="1278.45" width="20" height="20" as="geometry" />
        </mxCell>
        <mxCell id="LfVNy8qlSJdIRLK8mX6e-79" value="~" style="strokeColor=none;fillColor=none;fontColor=#000000;whiteSpace=wrap;align=center;verticalAlign=middle;fontStyle=0;fontSize=14;spacing=0;movable=1;resizable=1;rotatable=1;deletable=1;editable=1;locked=0;connectable=1;" parent="1" vertex="1">
          <mxGeometry x="637" y="1272.45" width="20" height="32" as="geometry" />
        </mxCell>
        <mxCell id="LfVNy8qlSJdIRLK8mX6e-80" value="~" style="strokeColor=none;fillColor=none;fontColor=#000000;whiteSpace=wrap;align=center;verticalAlign=middle;fontStyle=0;fontSize=14;spacing=0;movable=1;resizable=1;rotatable=1;deletable=1;editable=1;locked=0;connectable=1;" parent="1" vertex="1">
          <mxGeometry x="259.32" y="1272.45" width="22.68" height="32" as="geometry" />
        </mxCell>
        <mxCell id="LfVNy8qlSJdIRLK8mX6e-81" value="プライベート" style="html=1;shadow=0;dashed=0;shape=mxgraph.bootstrap.radioButton2;labelPosition=right;verticalLabelPosition=middle;align=left;verticalAlign=middle;gradientColor=#DEDEDE;fillColor=#EDEDED;checked=0;spacing=5;checkedFill=#0085FC;checkedStroke=#ffffff;sketch=0;fontColor=#000000;movable=1;resizable=1;rotatable=1;deletable=1;editable=1;locked=0;connectable=1;" parent="1" vertex="1">
          <mxGeometry x="308.15999999999997" y="1333.56" width="10" height="10" as="geometry" />
        </mxCell>
        <mxCell id="LfVNy8qlSJdIRLK8mX6e-82" value="×" style="strokeColor=none;fillColor=none;fontColor=#000000;whiteSpace=wrap;align=center;verticalAlign=middle;fontStyle=0;fontSize=14;spacing=0;movable=1;resizable=1;rotatable=1;deletable=1;editable=1;locked=0;connectable=1;" parent="1" vertex="1">
          <mxGeometry x="290.15999999999997" y="1214" width="26" height="32" as="geometry" />
        </mxCell>
        <mxCell id="LfVNy8qlSJdIRLK8mX6e-83" value="&lt;font color=&quot;#ffffff&quot;&gt;SE2&lt;/font&gt;" style="rounded=0;whiteSpace=wrap;html=1;strokeColor=#CC0000;strokeWidth=2;fillColor=#CC0000;" parent="1" vertex="1">
          <mxGeometry x="789" y="1030" width="37.16" height="20" as="geometry" />
        </mxCell>
        <mxCell id="LfVNy8qlSJdIRLK8mX6e-86" value="&lt;font color=&quot;#cc0000&quot;&gt;&lt;b&gt;SE2.14&lt;/b&gt;&lt;/font&gt;" style="shape=callout;whiteSpace=wrap;html=1;perimeter=calloutPerimeter;base=10;position2=0.68;size=10;position=0.6;strokeColor=#CC0000;strokeWidth=2;" parent="1" vertex="1">
          <mxGeometry x="290.15999999999997" y="1255.45" width="44" height="25" as="geometry" />
        </mxCell>
        <mxCell id="LfVNy8qlSJdIRLK8mX6e-87" value="&lt;font color=&quot;#cc0000&quot;&gt;&lt;b&gt;SE2.17&lt;/b&gt;&lt;/font&gt;" style="shape=callout;whiteSpace=wrap;html=1;perimeter=calloutPerimeter;base=10;position2=0.67;size=10;position=0.6;strokeColor=#CC0000;strokeWidth=2;" parent="1" vertex="1">
          <mxGeometry x="116.58000000000001" y="1310.45" width="44" height="25" as="geometry" />
        </mxCell>
        <mxCell id="LfVNy8qlSJdIRLK8mX6e-99" value="&lt;font color=&quot;#cc0000&quot;&gt;&lt;b&gt;SE2.1.1&lt;/b&gt;&lt;/font&gt;" style="shape=callout;whiteSpace=wrap;html=1;perimeter=calloutPerimeter;base=10;position2=0.73;size=10;position=0.6;strokeColor=#CC0000;strokeWidth=2;" parent="1" vertex="1">
          <mxGeometry x="145.66" y="1023.5" width="44" height="22.5" as="geometry" />
        </mxCell>
        <mxCell id="LfVNy8qlSJdIRLK8mX6e-100" value="&lt;font color=&quot;#cc0000&quot;&gt;&lt;b&gt;SE2.4&lt;/b&gt;&lt;/font&gt;" style="shape=callout;whiteSpace=wrap;html=1;perimeter=calloutPerimeter;base=10;position2=0.67;size=10;position=0.6;strokeColor=#CC0000;strokeWidth=2;" parent="1" vertex="1">
          <mxGeometry x="145.57999999999998" y="1079" width="44" height="25" as="geometry" />
        </mxCell>
        <mxCell id="LfVNy8qlSJdIRLK8mX6e-101" value="&lt;font color=&quot;#cc0000&quot;&gt;&lt;b&gt;SE2.7&lt;/b&gt;&lt;/font&gt;" style="shape=callout;whiteSpace=wrap;html=1;perimeter=calloutPerimeter;base=10;position2=0.67;size=10;position=0.6;strokeColor=#CC0000;strokeWidth=2;" parent="1" vertex="1">
          <mxGeometry x="145.57999999999998" y="1138" width="50" height="25" as="geometry" />
        </mxCell>
        <mxCell id="LfVNy8qlSJdIRLK8mX6e-102" value="&lt;font color=&quot;#cc0000&quot;&gt;&lt;b&gt;SE2.9&lt;/b&gt;&lt;/font&gt;" style="shape=callout;whiteSpace=wrap;html=1;perimeter=calloutPerimeter;base=10;position2=0.67;size=10;position=0.6;strokeColor=#CC0000;strokeWidth=2;" parent="1" vertex="1">
          <mxGeometry x="148.57999999999998" y="1196.5" width="44" height="25" as="geometry" />
        </mxCell>
        <mxCell id="LfVNy8qlSJdIRLK8mX6e-104" value="&lt;font color=&quot;#cc0000&quot;&gt;&lt;b&gt;SE2.13&lt;/b&gt;&lt;/font&gt;" style="shape=callout;whiteSpace=wrap;html=1;perimeter=calloutPerimeter;base=10;position2=0.73;size=10;position=0.6;strokeColor=#CC0000;strokeWidth=2;" parent="1" vertex="1">
          <mxGeometry x="143.74" y="1257.95" width="44" height="22.5" as="geometry" />
        </mxCell>
        <mxCell id="LfVNy8qlSJdIRLK8mX6e-105" value="&lt;font color=&quot;#cc0000&quot;&gt;&lt;b&gt;SE2.10&lt;/b&gt;&lt;/font&gt;" style="shape=callout;whiteSpace=wrap;html=1;perimeter=calloutPerimeter;base=10;position2=0.67;size=10;position=0.6;strokeColor=#CC0000;strokeWidth=2;" parent="1" vertex="1">
          <mxGeometry x="236" y="1196.5" width="44" height="25" as="geometry" />
        </mxCell>
        <mxCell id="LfVNy8qlSJdIRLK8mX6e-106" value="&lt;font color=&quot;#cc0000&quot;&gt;&lt;b&gt;SE2.11&lt;/b&gt;&lt;/font&gt;" style="shape=callout;whiteSpace=wrap;html=1;perimeter=calloutPerimeter;base=10;position2=0.67;size=10;position=0.6;strokeColor=#CC0000;strokeWidth=2;" parent="1" vertex="1">
          <mxGeometry x="322" y="1196" width="44" height="25" as="geometry" />
        </mxCell>
        <mxCell id="LfVNy8qlSJdIRLK8mX6e-107" value="&lt;font color=&quot;#cc0000&quot;&gt;&lt;b&gt;SE2.2&lt;/b&gt;&lt;/font&gt;" style="shape=callout;whiteSpace=wrap;html=1;perimeter=calloutPerimeter;base=10;position2=0.73;size=10;position=0.6;strokeColor=#CC0000;strokeWidth=2;" parent="1" vertex="1">
          <mxGeometry x="523" y="1023.55" width="44" height="22.5" as="geometry" />
        </mxCell>
        <mxCell id="LfVNy8qlSJdIRLK8mX6e-123" value="&lt;font color=&quot;#cc0000&quot;&gt;&lt;b&gt;SE2.1.2&lt;/b&gt;&lt;/font&gt;" style="shape=callout;whiteSpace=wrap;html=1;perimeter=calloutPerimeter;base=10;position2=0.73;size=10;position=0.6;strokeColor=#CC0000;strokeWidth=2;" parent="1" vertex="1">
          <mxGeometry x="345" y="1023.5" width="44" height="22.5" as="geometry" />
        </mxCell>
        <mxCell id="LfVNy8qlSJdIRLK8mX6e-124" value="&lt;font color=&quot;#cc0000&quot;&gt;&lt;b&gt;SE2.3&lt;/b&gt;&lt;/font&gt;" style="shape=callout;whiteSpace=wrap;html=1;perimeter=calloutPerimeter;base=10;position2=0.73;size=10;position=0.6;strokeColor=#CC0000;strokeWidth=2;" parent="1" vertex="1">
          <mxGeometry x="668.84" y="1030.55" width="44" height="22.5" as="geometry" />
        </mxCell>
        <mxCell id="LfVNy8qlSJdIRLK8mX6e-125" value="&lt;font color=&quot;#cc0000&quot;&gt;&lt;b&gt;SE2.5&lt;/b&gt;&lt;/font&gt;" style="shape=callout;whiteSpace=wrap;html=1;perimeter=calloutPerimeter;base=10;position2=0.73;size=10;position=0.6;strokeColor=#CC0000;strokeWidth=2;" parent="1" vertex="1">
          <mxGeometry x="523" y="1096.45" width="44" height="22.5" as="geometry" />
        </mxCell>
        <mxCell id="LfVNy8qlSJdIRLK8mX6e-126" value="&lt;font color=&quot;#cc0000&quot;&gt;&lt;b&gt;SE2.6&lt;/b&gt;&lt;/font&gt;" style="shape=callout;whiteSpace=wrap;html=1;perimeter=calloutPerimeter;base=10;position2=0.73;size=10;position=0.6;strokeColor=#CC0000;strokeWidth=2;" parent="1" vertex="1">
          <mxGeometry x="668.84" y="1096.45" width="44" height="22.5" as="geometry" />
        </mxCell>
        <mxCell id="LfVNy8qlSJdIRLK8mX6e-127" value="&lt;font color=&quot;#cc0000&quot;&gt;&lt;b&gt;SE2.8&lt;/b&gt;&lt;/font&gt;" style="shape=callout;whiteSpace=wrap;html=1;perimeter=calloutPerimeter;base=10;position2=0.73;size=10;position=0.6;strokeColor=#CC0000;strokeWidth=2;" parent="1" vertex="1">
          <mxGeometry x="523" y="1156" width="44" height="22.5" as="geometry" />
        </mxCell>
        <mxCell id="LfVNy8qlSJdIRLK8mX6e-128" value="&lt;font color=&quot;#cc0000&quot;&gt;&lt;b&gt;SE2.12&lt;/b&gt;&lt;/font&gt;" style="shape=callout;whiteSpace=wrap;html=1;perimeter=calloutPerimeter;base=10;position2=0.73;size=10;position=0.6;strokeColor=#CC0000;strokeWidth=2;" parent="1" vertex="1">
          <mxGeometry x="523" y="1214" width="44" height="22.5" as="geometry" />
        </mxCell>
        <mxCell id="LfVNy8qlSJdIRLK8mX6e-129" value="&lt;font color=&quot;#cc0000&quot;&gt;&lt;b&gt;SE2.15&lt;/b&gt;&lt;/font&gt;" style="shape=callout;whiteSpace=wrap;html=1;perimeter=calloutPerimeter;base=10;position2=0.73;size=10;position=0.6;strokeColor=#CC0000;strokeWidth=2;" parent="1" vertex="1">
          <mxGeometry x="523" y="1272.45" width="44" height="22.5" as="geometry" />
        </mxCell>
        <mxCell id="LfVNy8qlSJdIRLK8mX6e-130" value="&lt;font color=&quot;#cc0000&quot;&gt;&lt;b&gt;SE2.16&lt;/b&gt;&lt;/font&gt;" style="shape=callout;whiteSpace=wrap;html=1;perimeter=calloutPerimeter;base=10;position2=0.73;size=10;position=0.6;strokeColor=#CC0000;strokeWidth=2;" parent="1" vertex="1">
          <mxGeometry x="668.84" y="1272.45" width="44" height="22.5" as="geometry" />
        </mxCell>
        <mxCell id="LfVNy8qlSJdIRLK8mX6e-132" value="" style="shape=image;verticalLabelPosition=bottom;labelBackgroundColor=default;verticalAlign=top;aspect=fixed;imageAspect=0;image=data:image/png,iVBORw0KGgoAAAANSUhEUgAAAWsAAAD6CAYAAABnC2YqAAAAAXNSR0IArs4c6QAAAARnQU1BAACxjwv8YQUAAAAJcEhZcwAADsMAAA7DAcdvqGQAABa6SURBVHhe7d0LsFVl+cfxxyuEGIpU0KQ5jA6m0ICFQ2oz4WUakkhRx9Q0xMoxmJhuXsoirCmjSWlolMqMtEKTJslLo/gPq8kbmphJMSpgpQGhgSGBVv77vezn9LJY53Buctaz1vcz885a612Xs8/ZrN9+edZee+/2yn8ZAKDSdm9NAQAVRlgDQACENQAEQFgDQACENQAEQFgDQACENQAEQFgDQACENQAEQFgDQACENQAEQFgDQACENQAEQFgDQACENQAEQFgDQACENQAEQFgDQACENQAEQFgDQACENQAEQFgDQACENQAEQFgDQACENQAEQFgDQACENQAEQFgDQACENQAEQFgDQACENQAEQFgDQACENQAEQFgDQACENQAEQFgDQACENQAEQFgDQACENQAEQFgDQACENQAEQFgDQAC1Deu5c+faokWLWksAEFttwvrhhx+2KVOm2IYNG1o9u97mzZvte9/7np1wwgk2fPhw+8AHPmD33XefvfLKK60tAKB7KIP0ki1bttjs2bPtiSeesBtuuMH+8Ic/2Cc+8Yk0wn/wwQdbWwFA9zQirDXi/fznP2/XXHONvfTSS2mku2TJEjvjjDNs1KhR9pnPfMb+9re/tbY2W758uU2fPj2tmzx5st111107HR3/9re/taeeespmzJhhw4YNs379+tmRRx5pEydOtFtvvTWFuejnfPnLX07rJkyYYAsXLrR///vfaZ3KNl/72tfshz/8ob3zne9M6/OfrWPMnz8/jdy1/+c+9zl7/vnn0zr9j0I/W9tfeOGFbb+XrwcQW+3DWkF4/fXXp/kPfvCDtvfee9v9999vP/nJT+yqq66ypUuX2siRI+0b3/hGCsNnn302BeaZZ55pjz76qF1xxRUpPJ988sl0jPb88Y9/tLe+9a02ZMiQVs82CtxTTz3Vdt99d9u0aVM6tsL83nvvte9+97u2ePFiu/nmm9sC+Wc/+5kNHTrU7r77brv00kvt+9//fnpM8uMf/zi9IOix63d44xvfmNZ72G/cuNHuuecemzVrlv36179Ox7zlllvSOmBX0GBE/3b/9a9/tXq2p36dT2vXrm31oLNqHdYKq9tvvz2F7sc+9jEbMGBACmT1vf/9709h179/fzv++OPt73//e/oH9LrXvc7mzJlj73jHO1LAHnTQQXbggQfaihUrWkct9+KLL6Zj7bHHHq2ebfbff38bM2ZMepHQMbSdRuvaVj//ox/9aBrle6190qRJ9q53vSuNzBX+2m/dunXpdznllFPss5/9rA0aNCj1H3XUUfb73/8+vQjIa17zGjv33HPt9a9/ve233342btw4W716tW3dujWtB15tr33ta9P1Iw0iioGtZQ2K1qxZYwcccECrF51V67BWaeI73/lOGiX7iFdh/Ze//CWFmi4CqimYFWoaoe6555725z//OYW7SgmHH364/ehHP2obvfaEfu7BBx9sAwcObPVYelwKYr1YSDHwte4///mP7bbbbql/wYIFbRcwTz/99PS4tI0owNVy2tfXA682DTI++clP2nPPPbddYHtQ69+3ynU6z9A1tS+DaCSquvD69etbPdtCTeWGlStXtjWNthWAq1atSmUEjbyXLVuW6tdnnXVWa8/27bPPPumFoBjqL7/8cipPKDTL6B+xttkZHVf/+PVY9ftoqvIJUDUKYl1cV2DPmzfP/vnPf7YF9QUXXEBQd1Otw/ptb3ubjR07NtWk/UKeglolAoWw89GraIQ7YsQIe/vb355GslrXmVH1YYcdlkoS+geaU6CqTq0Lm29605vSCN7LFqLyhx6TyiUdUaA/88wzdvLJJ6fHL515XEBf8MDWxf2TTjopjbgJ6p6p/chagatar+rWegud6tYnnnii3XTTTfa73/0uBZ5G0DNnzkzBqbqvassK8xdeeMFuu+02u/POO9OxFJh6Z8cjjzySlnOjR4+2N7/5zemioWrfCmeVYbT/e9/73jSq0IuARuA///nP0yhctbvrrrvOxo8f3xbA7dHvse+++7bVtzWy1nu6garTYERlPPRM7cNadNFQpYyrr746BakuKH7kIx+xL3zhC3booYfat7/97VTXVmC+5S1vsQ9/+MOpfKIRgUoYuuinC4MK9gceeCCNcIv0InDxxRfb4MGD7eyzz06jeh1X9TldCBTVqj/96U/b448/bkcffbSdd955duyxx6YLjjv7x7zXXnulx6W34ultfRqtH3fccWmkwgVEVI3Ke1deeWW6kPjTn/40DU6+9a1vtdWw0XW7/fe/+Vx96iQFt97brKBXaQXAjvKg1ttlNaDILzBSDumeRoyse8vTTz+dRswafQPYkf6X9/Wvf327oBZN9b9MjbAV2oywu64xI2v+AwG8+nRTjK4P6V6BstGzQvrGG29MJTzdZ1BEbbt9tQprAhmor6YHefiwJqCB5mlicIcNa0IaQJNCO1xYd+bhEuRAfXQmkJsQ2mHCuqOH2dlfgRAHqquzgdvRdnUO7RBh3d5DLOsnkIH6KQvh9oK5roFd+bDuTCB3ZhsA8XQmpLsS5JFVOqx3FsLF9TtbBhDHzkI5X25CYFc2rMseVt7n82V9ruwYrqN1AHaNjgK1M+Fc1pcr64sqTFjnyz6fT/X9irmy7QFUX0cBrO8X9b7iVIrbF5cjq2RYFx9SWfDmU/8s6rLtJJ8HUG3tha/P6+v2fL44lXxeistRVT6sy+Y1zZv3FUO7uOxTANVTDF6FsuTL+TZ58z7X3nxklQvr4sMpBq2meQjnzb85Reu9T3yaK+sDsGuVBWkevmoe2voCDu/zJjsbaUtxOaJKh7XP59NiU0Brmn8JLYB60lfiKXjLgltNilPJ56Oq1OdZK3Tbkwe0Nw9qPhsXaAad6/m5X2zt6WhdFJX98gH/4+bTYlO5Q0+alz8A1Juf73mpM29SnNZFiG+Kyf/o/qR43VpPHCNroBl0rvvgrHhtSvL5uqlMWHf0R/YnxJueJB9V+xRA/eXnvOdAMR/a09G6CCo9si7+8fNlTf1JY2QNNIOPrD2kJc8FKS7XRSXDuuwPnff5KyphDTRLHtbe3M5yI7pQI2t/ctTn83ri1ADUn5/vZVngirlRF2EuMOZ/fF/2PsIaaAY/14sZIMXlugkT1s6fEDV/Rc1fVQHUV37O51ng8vm6CRHWkj8xefP/EgGoP53rOufLskCtzioR1t35I2sfD+neepKGDx/emgNQRX6u+8i6q3orK/pCZUfWZX9U9RVbd580APHk53yxFZX1RRamDJLLn4T2nigA9VM835t07ocK6+IT48udecIWLVpkkydPttWrV7d6tlH/3LlzW0sAukrn3+OPP25r165t9ZTTem3Xk4Bt75zvyTGjqHwZZGdPTleepGXLltn8+fNty5YtrR4APfX888/bkiVL7Oabb7Y1a9a0erenfq3Xdtq+JzqbCV3JhghClkGKOvukjB8/3latWmWLFy9u9QDoqQMOOMBOO+20NL9w4cIdAlvL6hdtp+27q24B3BXhwjp/srr6xA0bNsymTZtmCxYs2KEcAqD7hg4dWhrYxaDWdr2hJzkQVfgLjF01cuRImzRpEuUQoJcVA/uxxx57VYI615SgltBlkO48Ufq+tokTJ9rmzZsphwC9LA/sG264IU1fjaBuUki7WtSsu0rf1zh16tT0qr9ixYpWLwBUVyPDWkaMGGETJkywefPmtXoA9FReoz7nnHPSVMvFi47ouvBh3d3/DunbjlUO0XuvAfRc8WLiqFGjtqth91ZgN7EEIrv99xfv89+8+BC07J/74beW6sNbvOkDyNV0gXDr1q2p/jxmzJi0fU/os0FWrlzZWgLQWR2966OjdV31yCOP2IABA6xfv37Wv39/23PPPVPbY4892poGYro2JZpqOVdcjqKxZRAAveO5557rMIzzi47aTtuj6whrAD0yePDgdMPZ6aef3u6oWf1ar+20PbqOsM5QAgG6TmWFI444wt7whje0esppvbaLWoboa4Q1AARAWANAAIQ1AARAWANAAIQ1AARAWANAAIQ1AARAWANAAOHDWm+w5032QDM0+XwPHdb+pBHWQDM0+ZxnZA0gjCaf72E/IlVTfTyqt/2OvyJtD6C+NvzfJenjUb3pI1Gb8hGp4cP6pZdeSu3www9P2wOor+XLl9vee++dWtPCuhZlEADN0dRzvhYXGP1VFEC9+bnexMBmZA0gFEbWgRHYQDM0+VynfgAAARDWABAAYQ0AARDWABAAYQ0AAYS+g1F3Lr788supjRgxIm3fE0uXLrU77rjDXnzxxVZP1+yzzz72nve8x8aOHdvqAdCbVqxYYXvttVdquouROxgbqidBLdpXxwCA3sbIOnPRRRel6ezZs9O0q3q6P4COMbJGZekF6U9/+lPbi1dP9OaxAOxahHUfWrRokU2ePNlWr17d6tlG/XPnzk3zK1eutMsvv9zWrVuXltWv9d1RPBaAOAjrPrZs2TKbP3++bdmypdWzvcMOO8yuvfZaGzp0aKun+3rzWAB2LcK6j40fP95WrVplixcvbvVsT6PhGTNm2NNPP21Tpkyxq666yj7+8Y/bZZddlgL+r3/9a6qVjxo1Ko3S77zzzrYyh0bhqp9/6EMfSvN+rA0bNqT1AOIgrPvYsGHDbNq0abZgwYIdyiG5QYMGpRG4glqB/aUvfSl9+cJXvvIVGzduXBqhz5kzx2655RZ76KGHWnttuyBzySWX2Pnnn9/qARARYV0BI0eOtEmTJnVYDimjkbKuiL/73e9OV8EPOuggO/nkk+2Xv/xlereMnHTSSXbIIYfYgAED0jKAmAjrCtDbiyZOnGibN29utxxSRuWO/v37p6B2Q4YMsY0bN6a3M0q+DkBchHVFDBw40KZOnWoLFy5MpYvOUMhrJO6jaFm/fv0OAQ4gPsK6QnRjz4QJE2zevHmtnnKbNm1KNwoNHz48vXdaFxUV2M8++2yqWR933HHppgEA9UFYV4jurFI5RO/qaM8xxxxjP/jBD2zmzJlpBH3ppZfa/fffb6NHj7bp06enmrUuOAKoF243z3C7OVBt3G4OAKg0whoAAqAMkpk1a1aPPiJV9JnWqicD6H2UQZDoiwMUtt3lXz4AAL2NkTWAMBhZAwAqjbAGgAAIawAIgLAGgAAIawAIgLAGgAAIawAIgLAGgAAIawAIgLAGgAAIawAIgLAGgAAIawAIgLAGgAAIawAIgLAGgAAIawAIgLAGgAAIawAIgO9gzCxdutTuuOOObn/DuX9h7tixY1s9AHoT38GIpCdBLdpXxwCA3sbIOnPRRRel6ezZs9O0q3q6P4COMbJGI8ydO9cWLVrUWgIQCWHdhxSckydPttWrV7d6tlG/ghUAHGHdx5YtW2bz58+3LVu2tHoAYEeEdR8bP368rVq1yhYvXtzq2Z7q9ffdd5+dccYZNnz4cLvwwgvbRuIPP/ywTZ8+3S6//HI777zzbO3atXbZZZelftfeKF3HuOCCC9Kx9TOWL1+ejl38GQCqgbDuY8OGDbNp06bZggULSgPyySeftHnz5tkXv/jFNH/CCSfYtdde2zYSf/TRR+3oo4+2OXPm2L777pv6dmb9+vV25ZVX2pQpU2zcuHH2zDPP2Fe/+lU799xz7YknnrD3ve99ds0119jmzZtbewDoa4R1BYwcOdImTZpUWg45+OCD7Zvf/KYdeuih6cr26NGjbePGjW3bHXvssXbMMcfYoEGD2q6Ad2TTpk1ppK3QV1DryrhKMXoMRx11VLqarn4df82aNa29APQ1wroCFLITJ05MI9liOUTr7rnnHjv11FNTieLEE0+0f/zjH6211vZWpc5asmTJDi8IehukRtJ6QdDPOPLII+0Xv/hFelEAUA2EdUUMHDjQpk6dagsXLkzvJXUPPPBACk6F6cqVK+3uu+9Oo+ju0h2WF198sf3qV79q+zkK/BkzZthTTz2VfobaY489ZmPGjEnrAfQ9wrpCdGPPhAkTUo3aabTdv3//1DQifvDBB+2FF15ord1ev379bOjQoemioUbL69ats9/85jettdsomAcPHmxnnnmmXX311al+rRKIat8PPfRQuglJ5Y/rr78+lUwAVANhXSEqZ6gcovdeO108VADrXSOnnHJKW3hv3bq1tcX/aP/TTjstjZhV0pg5c6YNGTKktXZ7qn0rpG+88UY78MAD7VOf+pRdd911dsghh6RRtvbXZ50AqAZuN89wuzlQbdxuDgCotNBhHfUVEkDPNPHcD10GUfnDSyG9UQaZNWtWjz4iVVTnVa0YQO/zMohKIJpSBmkova2tJxfV/MsHAKC3MbIGEAYj6wDq8gcH0Dualgm1KIMQ3EAzNPlcp2YNAAFUNqzLXkG9L1/ntSkAzZCf82WZ4Mr6IqtE0nX3j1q3JwNA5zQxM8INS8v+2IQ20AxNPv9D1xD0JBHUQLM09bwPEdbFJ6dYpyawgWYonuvF+nWds6DyYZ3/8TXvT47P1/0JAvA/fr77uS/5vNQ1DypxB6MUH4bfuehNy7pr0af5XYxq+nznvOmD+tWv7bWtHzNXkV8daKRiqPpATHckal53KOqz2/WlGnlTf/HuRW3vUx3Xmx/TRQ7yyoa1lr0pZIth7U1BrFvOvXlwa17r1Dyk/VgAqsVD1ucVwmq6rdwDWvPeireY52Htx/KWI6x7Sf5QNJ+3PLDz5iNrhbIHtferT/Paz48DoJo8XD14Fcg+gvbA9j7vz1tZUKu5fD6ikGGt5XzU7MHsge0h7es9rF0+D6BvFQPVQ9dHzx7Qmvq8r1fTPoT1LlZ8KApZn3rgaqogzpuHs8/7cr6fHwdANSloRaHqwethreYj6Hzem4e07yc+dYR1L8sfjoerB65PPYg9nH3el7WNT735sQBUl4euNx855wGtbXxZ85pqG9/XQ9qnov7oKh3WHrR5y0fMZfN5n5r20dRpOZ8C6DseonmY5qHrLQ/mYp/Pa59ic/l8VJULa8kDNZ/Pw1ehrPliSOfb+Ta+v88DqJ48YDUtGzHnoe3b5Os19f3z+TqofFj71FtZIGs+b/n2+f4Aqq0Yst4UxHkrC/J8e98/n0ZXybCWPGhFISxa9kAuBrTPi/eJT8t0tA7Aq6OjAM1DViEsHtLeV1z2fTQv+THqIkxYSx7AeUBrqqZRtviyN9fePIC+kYdpcT5v4qNptTyoJZ8X38endVDZsBZ/aPlDLAtsb1qWvM+XAcSQB6038YD21qSglkqHteShK77sfZoWQ7o4nyvrA9C3yoJVfXnw+ryHtni/L0txuS4qH9ZSDF6fz0Pap/l8UVkfgGooC1jvywPYp/nI2uXb1U2IsBY9zOJD9WUPbWlvGymuA1AdxdDN5ctlIS1aLvbVSZiwdnkwS1k4E8pAfZSFcHE5r1nXVbiwlvYCmZAG6qts1FwW5HUVMqxde6FdRIgDcXQmfJsU0i50WDv/FQhloL48nJsW0q4WYb0z+hUJcqD6mjhi7qxGhDUARFf/S6gAUAOENQAEQFgDQACENQAEQFgDQACENQAEQFgDQACENQAEQFgDQACENQAEQFgDQACENQAEQFgDQACENQAEQFgDQACENQAEQFgDQACENQAEQFgDQACENQAEQFgDQACENQAEQFgDQACENQAEQFgDQACENQAEQFgDQACENQAEQFgDQACENQAEQFgDQACENQAEQFgDQACENQAEQFgDQACENQAEQFgDQACENQAEQFgDQACENQAEQFgDQACENQAEQFgDQACENQBUntn/A8v0lYJapZbCAAAAAElFTkSuQmCC;" parent="1" vertex="1">
          <mxGeometry x="192.57999999999996" y="1510" width="363" height="250" as="geometry" />
        </mxCell>
        <mxCell id="pwsWZTVwL7JcvRv4W84V-1" value="メーカー名" style="strokeColor=none;fillColor=none;fontColor=#000000;whiteSpace=wrap;align=right;verticalAlign=middle;fontStyle=0;fontSize=14;spacing=3;movable=1;resizable=1;rotatable=1;deletable=1;editable=1;locked=0;connectable=1;" parent="1" vertex="1">
          <mxGeometry x="125.58" y="1550" width="90" height="32" as="geometry" />
        </mxCell>
      </root>
    </mxGraphModel>
  </diagram>
</mxfile>
